<svg id="logo" xmlns="http://www.w3.org/2000/svg" xmlns:xlink="http://www.w3.org/1999/xlink" width="160" height="35.003" viewBox="0 0 160 35.003">
  <defs>
    <clipPath id="clip-path">
      <path id="Clip_2" data-name="Clip 2" d="M0,0H26.3V33.111H0Z" fill="none"/>
    </clipPath>
    <clipPath id="clip-path-2">
      <path id="Clip_11" data-name="Clip 11" d="M0,35H160V0H0Z" fill="none"/>
    </clipPath>
  </defs>
  <g id="Group_3" data-name="Group 3" transform="translate(0 1.182)">
    <path id="Clip_2-2" data-name="Clip 2" d="M0,0H26.3V33.111H0Z" fill="none"/>
    <g id="Group_3-2" data-name="Group 3" clip-path="url(#clip-path)">
      <path id="Fill_1" data-name="Fill 1" d="M6.339,33.111H0V0H14.853a11.855,11.855,0,0,1,8.171,3.075A10.318,10.318,0,0,1,26.3,10.69c0,6.121-4.921,10.737-11.447,10.737H6.339V33.11Zm0-27.246v9.7h8.514a4.743,4.743,0,0,0,4.825-4.873,4.719,4.719,0,0,0-4.825-4.825Z" transform="translate(0)" fill="#af0678"/>
    </g>
  </g>
  <path id="Fill_4" data-name="Fill 4" d="M11.967,26.015C5.145,26.015,0,20.423,0,13.008S5.145,0,11.967,0a11.5,11.5,0,0,1,7.474,2.7V.709h5.865v24.6H19.441V23.32A11.5,11.5,0,0,1,11.967,26.015Zm.757-20.1A6.8,6.8,0,0,0,6.1,13.008a6.8,6.8,0,0,0,6.622,7.1,6.384,6.384,0,0,0,4.712-2.04,7.345,7.345,0,0,0,1.91-5.055,7.343,7.343,0,0,0-1.91-5.055A6.385,6.385,0,0,0,12.724,5.913Z" transform="translate(27.858 8.987)" fill="#af0678"/>
  <path id="Fill_6" data-name="Fill 6" d="M0,13.008A12.71,12.71,0,0,1,13.008,0,12.739,12.739,0,0,1,25.164,8.135L19.252,9.886a6.694,6.694,0,0,0-6.244-3.973,6.9,6.9,0,0,0-6.906,7.1,6.9,6.9,0,0,0,6.906,7.1,6.694,6.694,0,0,0,6.244-3.973l5.912,1.75a12.739,12.739,0,0,1-12.156,8.135A12.71,12.71,0,0,1,0,13.008" transform="translate(57.277 8.987)" fill="#af0678"/>
  <path id="Fill_8" data-name="Fill 8" d="M16.981,33.111H0V0H16.035a10.949,10.949,0,0,1,7.308,2.584,8.514,8.514,0,0,1,2.909,6.45,8.342,8.342,0,0,1-3.217,6.67,9.148,9.148,0,0,1,4.635,7.947A8.9,8.9,0,0,1,24.6,30.4,11.442,11.442,0,0,1,16.981,33.111ZM6.339,19.015v8.231H16.981a4.031,4.031,0,0,0,2.9-1.189,4.26,4.26,0,0,0,0-5.853,4.031,4.031,0,0,0-2.9-1.188Zm0-13.15V13.2h9.7a3.621,3.621,0,0,0,2.6-1.047,3.713,3.713,0,0,0,1.041-2.643,3.562,3.562,0,0,0-3.642-3.642Z" transform="translate(86.317 1.182)" fill="#e31b92"/>
  <path id="Clip_11-2" data-name="Clip 11" d="M0,35H160V0H0Z" fill="none"/>
  <g id="Mask_Group_1" data-name="Mask Group 1" clip-path="url(#clip-path-2)">
    <path id="Fill_10" data-name="Fill 10" d="M6.717,34.293H.8V9.7H6.717v24.6ZM3.737,7.52A3.678,3.678,0,0,1,0,3.737,3.655,3.655,0,0,1,3.737,0,3.678,3.678,0,0,1,7.521,3.737,3.785,3.785,0,0,1,6.445,6.444,3.787,3.787,0,0,1,3.737,7.52Z" transform="translate(117.532)" fill="#e31b92"/>
    <path id="Fill_12" data-name="Fill 12" d="M31.293,15.647A15.647,15.647,0,1,1,15.647,0,15.646,15.646,0,0,1,31.293,15.647" transform="translate(128.707 3.71)" fill="#e31b92"/>
  </g>
</svg>